ISO-10303-21;
HEADER;
FILE_DESCRIPTION (( 'STEP AP214' ),
    '1' );
FILE_NAME ('CPI-1375-80T.STEP',
    '2024-12-12T19:41:33',
    ( '' ),
    ( '' ),
    'SwSTEP 2.0',
    'SolidWorks 2021',
    '' );
FILE_SCHEMA (( 'AUTOMOTIVE_DESIGN' ));
ENDSEC;

DATA;
#1 = CARTESIAN_POINT ( 'NONE',  ( -3.799999999999999822, -6.999999999999999112, -0.3500000000000002554 ) ) ;
#2 = CARTESIAN_POINT ( 'NONE',  ( -3.799999999999999822, 0.2999999999999999889, 0.000000000000000000 ) ) ;
#3 = DIRECTION ( 'NONE',  ( -0.000000000000000000, 1.000000000000000000, -0.000000000000000000 ) ) ;
#4 = CARTESIAN_POINT ( 'NONE',  ( 3.799999999999999822, -5.500000000000000000, 0.000000000000000000 ) ) ;
#5 =( LENGTH_UNIT ( ) NAMED_UNIT ( * ) SI_UNIT ( .MILLI., .METRE. ) );
#6 = MECHANICAL_DESIGN_GEOMETRIC_PRESENTATION_REPRESENTATION (  '', ( #128 ), #296 ) ;
#7 = DIRECTION ( 'NONE',  ( 0.000000000000000000, 1.000000000000000000, 0.000000000000000000 ) ) ;
#8 = AXIS2_PLACEMENT_3D ( 'NONE', #93, #288, #236 ) ;
#9 = EDGE_CURVE ( 'NONE', #409, #134, #27, .T. ) ;
#10 = DIRECTION ( 'NONE',  ( 0.000000000000000000, 1.000000000000000000, 0.000000000000000000 ) ) ;
#11 = SURFACE_STYLE_USAGE ( .BOTH. , #184 ) ;
#12 = EDGE_CURVE ( 'NONE', #307, #321, #401, .T. ) ;
#13 = CARTESIAN_POINT ( 'NONE',  ( -3.799999999999999822, -11.98994949366116813, 0.000000000000000000 ) ) ;
#14 = DIRECTION ( 'NONE',  ( 0.000000000000000000, -1.000000000000000000, 0.000000000000000000 ) ) ;
#15 = DIRECTION ( 'NONE',  ( 0.000000000000000000, -1.000000000000000000, 0.000000000000000000 ) ) ;
#16 =( NAMED_UNIT ( * ) PLANE_ANGLE_UNIT ( ) SI_UNIT ( $, .RADIAN. ) );
#17 = DIRECTION ( 'NONE',  ( -0.000000000000000000, 1.000000000000000000, -0.000000000000000000 ) ) ;
#18 = VECTOR ( 'NONE', #17, 1000.000000000000000 ) ;
#19 = AXIS2_PLACEMENT_3D ( 'NONE', #483, #130, #379 ) ;
#20 = TOROIDAL_SURFACE ( 'NONE', #165, 6.600000000000000533, 0.2999999999999999889 ) ;
#21 = ADVANCED_FACE ( 'NONE', ( #383 ), #20, .T. ) ;
#22 = FILL_AREA_STYLE_COLOUR ( '', #257 ) ;
#23 = PRODUCT_DEFINITION ( 'UNKNOWN', '', #608, #197 ) ;
#24 = VERTEX_POINT ( 'NONE', #475 ) ;
#25 = FACE_OUTER_BOUND ( 'NONE', #221, .T. ) ;
#26 = CIRCLE ( 'NONE', #468, 6.600000000000000533 ) ;
#27 = CIRCLE ( 'NONE', #129, 0.3500000000000002554 ) ;
#28 = FILL_AREA_STYLE_COLOUR ( '', #213 ) ;
#29 = ORIENTED_EDGE ( 'NONE', *, *, #263, .F. ) ;
#30 = EDGE_LOOP ( 'NONE', ( #558, #435 ) ) ;
#31 = CARTESIAN_POINT ( 'NONE',  ( 1.836970198721030181E-16, 6.899999999999999467, -1.500000000000000222 ) ) ;
#32 = ORIENTED_EDGE ( 'NONE', *, *, #287, .F. ) ;
#33 = AXIS2_PLACEMENT_3D ( 'NONE', #195, #77, #253 ) ;
#34 = CIRCLE ( 'NONE', #82, 6.900000000000000355 ) ;
#35 = DIRECTION ( 'NONE',  ( 0.000000000000000000, 0.000000000000000000, 1.000000000000000000 ) ) ;
#36 = AXIS2_PLACEMENT_3D ( 'NONE', #348, #14, #456 ) ;
#37 = ORIENTED_EDGE ( 'NONE', *, *, #539, .F. ) ;
#38 = DIRECTION ( 'NONE',  ( -0.000000000000000000, -1.000000000000000000, -0.000000000000000000 ) ) ;
#39 = ORIENTED_EDGE ( 'NONE', *, *, #242, .F. ) ;
#40 = DIRECTION ( 'NONE',  ( 0.000000000000000000, 0.000000000000000000, -1.000000000000000000 ) ) ;
#41 = APPLICATION_CONTEXT ( 'automotive_design' ) ;
#42 = DIRECTION ( 'NONE',  ( 1.224646799147353207E-16, 0.000000000000000000, -1.000000000000000000 ) ) ;
#43 = CARTESIAN_POINT ( 'NONE',  ( 0.000000000000000000, 0.2999999999999999334, 0.000000000000000000 ) ) ;
#44 = SHAPE_DEFINITION_REPRESENTATION ( #357, #451 ) ;
#45 = DIRECTION ( 'NONE',  ( 0.000000000000000000, 1.000000000000000000, 0.000000000000000000 ) ) ;
#46 = CIRCLE ( 'NONE', #232, 0.2999999999999999334 ) ;
#47 = CLOSED_SHELL ( 'NONE', ( #162, #380, #353, #88 ) ) ;
#48 = DIRECTION ( 'NONE',  ( 1.000000000000000000, -0.000000000000000000, 1.224646799147353207E-16 ) ) ;
#49 = DIRECTION ( 'NONE',  ( 0.000000000000000000, -1.000000000000000000, 0.000000000000000000 ) ) ;
#50 = CARTESIAN_POINT ( 'NONE',  ( 3.799999999999999822, -5.500000000000000000, -0.3500000000000002554 ) ) ;
#51 = SURFACE_STYLE_USAGE ( .BOTH. , #386 ) ;
#52 = ORIENTED_EDGE ( 'NONE', *, *, #458, .T. ) ;
#53 = CARTESIAN_POINT ( 'NONE',  ( 3.799999999999999822, 0.2999999999999999889, -0.3500000000000002554 ) ) ;
#54 = VERTEX_POINT ( 'NONE', #279 ) ;
#55 = CIRCLE ( 'NONE', #460, 0.3500000000000002554 ) ;
#56 = AXIS2_PLACEMENT_3D ( 'NONE', #411, #312, #299 ) ;
#57 = DIRECTION ( 'NONE',  ( 0.000000000000000000, 0.000000000000000000, 1.000000000000000000 ) ) ;
#58 = DIRECTION ( 'NONE',  ( 0.000000000000000000, 1.000000000000000000, 0.000000000000000000 ) ) ;
#59 = DIRECTION ( 'NONE',  ( 0.000000000000000000, 1.000000000000000000, 0.000000000000000000 ) ) ;
#60 = FACE_BOUND ( 'NONE', #469, .T. ) ;
#61 = SURFACE_STYLE_FILL_AREA ( #155 ) ;
#62 = DIRECTION ( 'NONE',  ( 0.000000000000000000, 0.000000000000000000, 1.000000000000000000 ) ) ;
#63 = CYLINDRICAL_SURFACE ( 'NONE', #317, 0.3500000000000002554 ) ;
#64 = SURFACE_STYLE_USAGE ( .BOTH. , #306 ) ;
#65 = ORIENTED_EDGE ( 'NONE', *, *, #147, .F. ) ;
#66 = COLOUR_RGB ( '',1.000000000000000000, 0.8117647058823529438, 0.5019607843137254832 ) ;
#67 = DIRECTION ( 'NONE',  ( -0.000000000000000000, -1.000000000000000000, -0.000000000000000000 ) ) ;
#68 = EDGE_LOOP ( 'NONE', ( #29, #503, #516, #364 ) ) ;
#69 = CYLINDRICAL_SURFACE ( 'NONE', #56, 6.500000000000000888 ) ;
#70 = EDGE_CURVE ( 'NONE', #159, #75, #430, .T. ) ;
#71 = VERTEX_POINT ( 'NONE', #230 ) ;
#72 = SURFACE_SIDE_STYLE ('',( #414 ) ) ;
#73 = ORIENTED_EDGE ( 'NONE', *, *, #467, .F. ) ;
#74 = AXIS2_PLACEMENT_3D ( 'NONE', #603, #227, #169 ) ;
#75 = VERTEX_POINT ( 'NONE', #428 ) ;
#76 = EDGE_CURVE ( 'NONE', #78, #576, #310, .T. ) ;
#77 = DIRECTION ( 'NONE',  ( -0.000000000000000000, -1.000000000000000000, -0.000000000000000000 ) ) ;
#78 = VERTEX_POINT ( 'NONE', #523 ) ;
#79 = DIRECTION ( 'NONE',  ( -0.000000000000000000, -1.000000000000000000, -0.000000000000000000 ) ) ;
#80 = ORIENTED_EDGE ( 'NONE', *, *, #396, .F. ) ;
#81 = CIRCLE ( 'NONE', #231, 0.2999999999999999334 ) ;
#82 = AXIS2_PLACEMENT_3D ( 'NONE', #477, #600, #559 ) ;
#83 = UNCERTAINTY_MEASURE_WITH_UNIT (LENGTH_MEASURE( 1.000000000000000082E-05 ), #315, 'distance_accuracy_value', 'NONE');
#84 = CARTESIAN_POINT ( 'NONE',  ( 8.450062914116737647E-16, 7.500000000000000000, 6.900000000000000355 ) ) ;
#85 = ORIENTED_EDGE ( 'NONE', *, *, #199, .F. ) ;
#86 = FACE_BOUND ( 'NONE', #593, .T. ) ;
#87 = EDGE_LOOP ( 'NONE', ( #560, #177, #415, #538 ) ) ;
#88 = ADVANCED_FACE ( 'NONE', ( #91 ), #143, .F. ) ;
#89 = CARTESIAN_POINT ( 'NONE',  ( 0.000000000000000000, 0.2999999999999999334, 6.600000000000000533 ) ) ;
#90 = CARTESIAN_POINT ( 'NONE',  ( 3.799999999999999822, 0.2999999999999999889, 0.000000000000000000 ) ) ;
#91 = FACE_OUTER_BOUND ( 'NONE', #118, .T. ) ;
#92 = LINE ( 'NONE', #178, #141 ) ;
#93 = CARTESIAN_POINT ( 'NONE',  ( 0.000000000000000000, 6.899999999999999467, 0.000000000000000000 ) ) ;
#94 = AXIS2_PLACEMENT_3D ( 'NONE', #284, #234, #432 ) ;
#95 = DIRECTION ( 'NONE',  ( 0.000000000000000000, 0.000000000000000000, 1.000000000000000000 ) ) ;
#96 = DIRECTION ( 'NONE',  ( 0.000000000000000000, 0.000000000000000000, -1.000000000000000000 ) ) ;
#97 = EDGE_LOOP ( 'NONE', ( #228, #597, #163, #416 ) ) ;
#98 =( NAMED_UNIT ( * ) PLANE_ANGLE_UNIT ( ) SI_UNIT ( $, .RADIAN. ) );
#99 = DIRECTION ( 'NONE',  ( 0.000000000000000000, -1.000000000000000000, 0.000000000000000000 ) ) ;
#100 = FACE_OUTER_BOUND ( 'NONE', #472, .T. ) ;
#101 = DIRECTION ( 'NONE',  ( 0.000000000000000000, 0.000000000000000000, -1.000000000000000000 ) ) ;
#102 = TOROIDAL_SURFACE ( 'NONE', #479, 6.600000000000000533, 0.2999999999999999889 ) ;
#103 = CARTESIAN_POINT ( 'NONE',  ( 3.799999999999999822, -11.98994949366116813, 0.000000000000000000 ) ) ;
#104 = AXIS2_PLACEMENT_3D ( 'NONE', #543, #244, #388 ) ;
#105 = CIRCLE ( 'NONE', #366, 6.600000000000000533 ) ;
#106 = DIRECTION ( 'NONE',  ( 0.000000000000000000, 0.000000000000000000, 1.000000000000000000 ) ) ;
#107 = DIRECTION ( 'NONE',  ( 0.000000000000000000, 1.000000000000000000, 0.000000000000000000 ) ) ;
#108 = DIRECTION ( 'NONE',  ( 0.000000000000000000, -1.000000000000000000, 0.000000000000000000 ) ) ;
#109 = CARTESIAN_POINT ( 'NONE',  ( 0.000000000000000000, 6.899999999999999467, 0.000000000000000000 ) ) ;
#110 = DIRECTION ( 'NONE',  ( -0.000000000000000000, -1.000000000000000000, -0.000000000000000000 ) ) ;
#111 = EDGE_LOOP ( 'NONE', ( #399, #566, #555, #580 ) ) ;
#112 = CARTESIAN_POINT ( 'NONE',  ( 0.000000000000000000, 6.899999999999999467, 1.500000000000000222 ) ) ;
#113 = DIRECTION ( 'NONE',  ( -0.000000000000000000, -1.000000000000000000, -0.000000000000000000 ) ) ;
#114 = AXIS2_PLACEMENT_3D ( 'NONE', #610, #49, #518 ) ;
#115 = PRESENTATION_LAYER_ASSIGNMENT (  '', '', ( #598 ) ) ;
#116 = CARTESIAN_POINT ( 'NONE',  ( 0.000000000000000000, 7.500000000000000000, 0.000000000000000000 ) ) ;
#117 = CARTESIAN_POINT ( 'NONE',  ( 0.000000000000000000, 0.2999999999999999889, 0.000000000000000000 ) ) ;
#118 = EDGE_LOOP ( 'NONE', ( #534, #218 ) ) ;
#119 = DIRECTION ( 'NONE',  ( 0.000000000000000000, 0.000000000000000000, 1.000000000000000000 ) ) ;
#120 = ORIENTED_EDGE ( 'NONE', *, *, #467, .T. ) ;
#121 = CIRCLE ( 'NONE', #530, 6.500000000000000888 ) ;
#122 = AXIS2_PLACEMENT_3D ( 'NONE', #607, #179, #137 ) ;
#123 = VERTEX_POINT ( 'NONE', #1 ) ;
#124 = CARTESIAN_POINT ( 'NONE',  ( 0.000000000000000000, 7.200000000000000178, 0.000000000000000000 ) ) ;
#125 = EDGE_LOOP ( 'NONE', ( #362, #80, #486, #85 ) ) ;
#126 = FACE_OUTER_BOUND ( 'NONE', #507, .T. ) ;
#127 = EDGE_LOOP ( 'NONE', ( #452, #183, #426, #393 ) ) ;
#128 = STYLED_ITEM ( 'NONE', ( #595 ), #217 ) ;
#129 = AXIS2_PLACEMENT_3D ( 'NONE', #4, #7, #490 ) ;
#130 = DIRECTION ( 'NONE',  ( 0.000000000000000000, -1.000000000000000000, 0.000000000000000000 ) ) ;
#131 = EDGE_LOOP ( 'NONE', ( #463, #423, #293, #52 ) ) ;
#132 = DIRECTION ( 'NONE',  ( 1.000000000000000000, 0.000000000000000000, 0.000000000000000000 ) ) ;
#133 = DIRECTION ( 'NONE',  ( 0.000000000000000000, 1.000000000000000000, 0.000000000000000000 ) ) ;
#134 = VERTEX_POINT ( 'NONE', #50 ) ;
#135 =( NAMED_UNIT ( * ) PLANE_ANGLE_UNIT ( ) SI_UNIT ( $, .RADIAN. ) );
#136 = CARTESIAN_POINT ( 'NONE',  ( 0.000000000000000000, 7.500000000000000000, 0.000000000000000000 ) ) ;
#137 = DIRECTION ( 'NONE',  ( 0.000000000000000000, 0.000000000000000000, -1.000000000000000000 ) ) ;
#138 = EDGE_CURVE ( 'NONE', #565, #321, #237, .T. ) ;
#139 = FILL_AREA_STYLE ('',( #249 ) ) ;
#140 = DIRECTION ( 'NONE',  ( 0.000000000000000000, -0.000000000000000000, 1.000000000000000000 ) ) ;
#141 = VECTOR ( 'NONE', #285, 1000.000000000000000 ) ;
#142 = STYLED_ITEM ( 'NONE', ( #144 ), #451 ) ;
#143 = PLANE ( 'NONE',  #94 ) ;
#144 = PRESENTATION_STYLE_ASSIGNMENT (( #11 ) ) ;
#145 = EDGE_LOOP ( 'NONE', ( #599, #318 ) ) ;
#146 = DIRECTION ( 'NONE',  ( 0.000000000000000000, 0.000000000000000000, 1.000000000000000000 ) ) ;
#147 = EDGE_CURVE ( 'NONE', #54, #24, #405, .T. ) ;
#148 = VERTEX_POINT ( 'NONE', #547 ) ;
#149 = DIRECTION ( 'NONE',  ( -0.000000000000000000, -1.000000000000000000, -0.000000000000000000 ) ) ;
#150 = PRESENTATION_LAYER_ASSIGNMENT (  '', '', ( #410 ) ) ;
#151 = CARTESIAN_POINT ( 'NONE',  ( 0.000000000000000000, 0.2999999999999999889, 0.000000000000000000 ) ) ;
#152 = CIRCLE ( 'NONE', #8, 1.500000000000000222 ) ;
#153 = DIRECTION ( 'NONE',  ( 0.000000000000000000, 1.000000000000000000, 0.000000000000000000 ) ) ;
#154 = DIRECTION ( 'NONE',  ( 0.000000000000000000, 0.000000000000000000, 1.000000000000000000 ) ) ;
#155 = FILL_AREA_STYLE ('',( #22 ) ) ;
#156 = AXIS2_PLACEMENT_3D ( 'NONE', #2, #487, #524 ) ;
#157 = DIRECTION ( 'NONE',  ( 0.000000000000000000, 0.000000000000000000, -1.000000000000000000 ) ) ;
#158 = FACE_OUTER_BOUND ( 'NONE', #330, .T. ) ;
#159 = VERTEX_POINT ( 'NONE', #592 ) ;
#160 = EDGE_CURVE ( 'NONE', #574, #71, #482, .T. ) ;
#161 = ORIENTED_EDGE ( 'NONE', *, *, #239, .T. ) ;
#162 = ADVANCED_FACE ( 'NONE', ( #493 ), #502, .T. ) ;
#163 = ORIENTED_EDGE ( 'NONE', *, *, #358, .T. ) ;
#164 = CIRCLE ( 'NONE', #185, 6.900000000000000355 ) ;
#165 = AXIS2_PLACEMENT_3D ( 'NONE', #478, #10, #95 ) ;
#166 = DIRECTION ( 'NONE',  ( -0.000000000000000000, -1.000000000000000000, -0.000000000000000000 ) ) ;
#167 = EDGE_LOOP ( 'NONE', ( #511, #289 ) ) ;
#168 = EDGE_CURVE ( 'NONE', #565, #123, #591, .T. ) ;
#169 = DIRECTION ( 'NONE',  ( 0.000000000000000000, 0.000000000000000000, 1.000000000000000000 ) ) ;
#170 = ORIENTED_EDGE ( 'NONE', *, *, #292, .T. ) ;
#171 = CARTESIAN_POINT ( 'NONE',  ( 3.799999999999999822, -5.500000000000000000, 0.3500000000000002554 ) ) ;
#172 = ORIENTED_EDGE ( 'NONE', *, *, #602, .T. ) ;
#173 = CIRCLE ( 'NONE', #33, 6.900000000000000355 ) ;
#174 = ADVANCED_FACE ( 'NONE', ( #25 ), #259, .T. ) ;
#175 = CYLINDRICAL_SURFACE ( 'NONE', #508, 1.500000000000000222 ) ;
#176 =( GEOMETRIC_REPRESENTATION_CONTEXT ( 3 ) GLOBAL_UNCERTAINTY_ASSIGNED_CONTEXT ( ( #328 ) ) GLOBAL_UNIT_ASSIGNED_CONTEXT ( ( #196, #98, #281 ) ) REPRESENTATION_CONTEXT ( 'NONE', 'WORKASPACE' ) );
#177 = ORIENTED_EDGE ( 'NONE', *, *, #594, .T. ) ;
#178 = CARTESIAN_POINT ( 'NONE',  ( 3.799999999999999822, -11.98994949366116813, -0.3500000000000002554 ) ) ;
#179 = DIRECTION ( 'NONE',  ( 0.000000000000000000, -1.000000000000000000, 0.000000000000000000 ) ) ;
#180 = ADVANCED_FACE ( 'NONE', ( #251 ), #69, .F. ) ;
#181 = FACE_OUTER_BOUND ( 'NONE', #192, .T. ) ;
#182 = CARTESIAN_POINT ( 'NONE',  ( 0.000000000000000000, 0.000000000000000000, 0.000000000000000000 ) ) ;
#183 = ORIENTED_EDGE ( 'NONE', *, *, #554, .F. ) ;
#184 = SURFACE_SIDE_STYLE ('',( #532 ) ) ;
#185 = AXIS2_PLACEMENT_3D ( 'NONE', #340, #294, #394 ) ;
#186 = ORIENTED_EDGE ( 'NONE', *, *, #473, .F. ) ;
#187 =( NAMED_UNIT ( * ) PLANE_ANGLE_UNIT ( ) SI_UNIT ( $, .RADIAN. ) );
#188 = APPLICATION_PROTOCOL_DEFINITION ( 'draft international standard', 'automotive_design', 1998, #361 ) ;
#189 = ADVANCED_FACE ( 'NONE', ( #158 ), #407, .T. ) ;
#190 = UNCERTAINTY_MEASURE_WITH_UNIT (LENGTH_MEASURE( 1.000000000000000082E-05 ), #489, 'distance_accuracy_value', 'NONE');
#191 = DIRECTION ( 'NONE',  ( 0.000000000000000000, 1.000000000000000000, 0.000000000000000000 ) ) ;
#192 = EDGE_LOOP ( 'NONE', ( #588, #465, #339, #161 ) ) ;
#193 = ADVANCED_FACE ( 'NONE', ( #309 ), #550, .F. ) ;
#194 = DIRECTION ( 'NONE',  ( 0.000000000000000000, 0.000000000000000000, -1.000000000000000000 ) ) ;
#195 = CARTESIAN_POINT ( 'NONE',  ( 0.000000000000000000, 7.200000000000000178, 0.000000000000000000 ) ) ;
#196 =( LENGTH_UNIT ( ) NAMED_UNIT ( * ) SI_UNIT ( .MILLI., .METRE. ) );
#197 = PRODUCT_DEFINITION_CONTEXT ( 'detailed design', #361, 'design' ) ;
#198 = DIRECTION ( 'NONE',  ( 0.000000000000000000, 0.000000000000000000, 1.000000000000000000 ) ) ;
#199 = EDGE_CURVE ( 'NONE', #412, #509, #105, .T. ) ;
#200 = AXIS2_PLACEMENT_3D ( 'NONE', #579, #113, #258 ) ;
#201 = CIRCLE ( 'NONE', #245, 1.500000000000000222 ) ;
#202 = AXIS2_PLACEMENT_3D ( 'NONE', #496, #397, #504 ) ;
#203 = DIRECTION ( 'NONE',  ( 0.000000000000000000, -1.000000000000000000, 0.000000000000000000 ) ) ;
#204 = FACE_OUTER_BOUND ( 'NONE', #131, .T. ) ;
#205 = LINE ( 'NONE', #545, #335 ) ;
#206 = DIRECTION ( 'NONE',  ( -0.000000000000000000, -1.000000000000000000, -0.000000000000000000 ) ) ;
#207 = CARTESIAN_POINT ( 'NONE',  ( 0.000000000000000000, 6.899999999999999467, 0.000000000000000000 ) ) ;
#208 = MANIFOLD_SOLID_BREP ( 'Boss-Extrude3', #298 ) ;
#209 = CARTESIAN_POINT ( 'NONE',  ( 0.000000000000000000, 7.500000000000000000, 0.000000000000000000 ) ) ;
#210 = VERTEX_POINT ( 'NONE', #450 ) ;
#211 = VECTOR ( 'NONE', #38, 1000.000000000000000 ) ;
#212 = AXIS2_PLACEMENT_3D ( 'NONE', #370, #461, #132 ) ;
#213 = COLOUR_RGB ( '',1.000000000000000000, 0.8117647058823529438, 0.5019607843137254832 ) ;
#214 = ADVANCED_FACE ( 'NONE', ( #204 ), #585, .F. ) ;
#215 = FILL_AREA_STYLE ('',( #28 ) ) ;
#216 = ORIENTED_EDGE ( 'NONE', *, *, #510, .T. ) ;
#217 = MANIFOLD_SOLID_BREP ( 'Boss-Extrude2[2]', #47 ) ;
#218 = ORIENTED_EDGE ( 'NONE', *, *, #584, .F. ) ;
#219 = CYLINDRICAL_SURFACE ( 'NONE', #223, 0.3500000000000002554 ) ;
#220 = MANIFOLD_SOLID_BREP ( 'Cut-Extrude2', #337 ) ;
#221 = EDGE_LOOP ( 'NONE', ( #484, #216, #247, #506 ) ) ;
#222 = PRESENTATION_LAYER_ASSIGNMENT (  '', '', ( #128 ) ) ;
#223 = AXIS2_PLACEMENT_3D ( 'NONE', #301, #314, #351 ) ;
#224 = CIRCLE ( 'NONE', #266, 1.500000000000000222 ) ;
#225 = PLANE ( 'NONE',  #429 ) ;
#226 = ORIENTED_EDGE ( 'NONE', *, *, #12, .F. ) ;
#227 = DIRECTION ( 'NONE',  ( -0.000000000000000000, 1.000000000000000000, -0.000000000000000000 ) ) ;
#228 = ORIENTED_EDGE ( 'NONE', *, *, #319, .F. ) ;
#229 = LINE ( 'NONE', #526, #273 ) ;
#230 = CARTESIAN_POINT ( 'NONE',  ( 7.960204194457796463E-16, 0.2999999999999999889, 6.500000000000000888 ) ) ;
#231 = AXIS2_PLACEMENT_3D ( 'NONE', #89, #280, #146 ) ;
#232 = AXIS2_PLACEMENT_3D ( 'NONE', #522, #561, #326 ) ;
#233 = FACE_OUTER_BOUND ( 'NONE', #437, .T. ) ;
#234 = DIRECTION ( 'NONE',  ( 0.000000000000000000, 1.000000000000000000, 0.000000000000000000 ) ) ;
#235 = DIRECTION ( 'NONE',  ( 1.000000000000000000, -0.000000000000000000, 1.224646799147353207E-16 ) ) ;
#236 = DIRECTION ( 'NONE',  ( 0.000000000000000000, 0.000000000000000000, 1.000000000000000000 ) ) ;
#237 = LINE ( 'NONE', #252, #246 ) ;
#238 = LINE ( 'NONE', #295, #557 ) ;
#239 = EDGE_CURVE ( 'NONE', #75, #342, #164, .T. ) ;
#240 = ORIENTED_EDGE ( 'NONE', *, *, #300, .F. ) ;
#241 =( NAMED_UNIT ( * ) SI_UNIT ( $, .STERADIAN. ) SOLID_ANGLE_UNIT ( ) );
#242 = EDGE_CURVE ( 'NONE', #513, #342, #81, .T. ) ;
#243 = AXIS2_PLACEMENT_3D ( 'NONE', #480, #235, #433 ) ;
#244 = DIRECTION ( 'NONE',  ( 0.000000000000000000, 1.000000000000000000, 0.000000000000000000 ) ) ;
#245 = AXIS2_PLACEMENT_3D ( 'NONE', #392, #297, #341 ) ;
#246 = VECTOR ( 'NONE', #350, 1000.000000000000000 ) ;
#247 = ORIENTED_EDGE ( 'NONE', *, *, #539, .T. ) ;
#248 = CARTESIAN_POINT ( 'NONE',  ( 7.960204194457796463E-16, 0.000000000000000000, 6.500000000000000888 ) ) ;
#249 = FILL_AREA_STYLE_COLOUR ( '', #66 ) ;
#250 = CARTESIAN_POINT ( 'NONE',  ( 0.000000000000000000, 0.2999999999999999334, 0.000000000000000000 ) ) ;
#251 = FACE_OUTER_BOUND ( 'NONE', #327, .T. ) ;
#252 = CARTESIAN_POINT ( 'NONE',  ( -3.799999999999999822, -11.98994949366116813, 0.3500000000000002554 ) ) ;
#253 = DIRECTION ( 'NONE',  ( 0.000000000000000000, 0.000000000000000000, 1.000000000000000000 ) ) ;
#254 = CARTESIAN_POINT ( 'NONE',  ( 0.000000000000000000, 0.2999999999999999889, -6.500000000000000888 ) ) ;
#255 = AXIS2_PLACEMENT_3D ( 'NONE', #587, #586, #157 ) ;
#256 = CIRCLE ( 'NONE', #400, 6.900000000000000355 ) ;
#257 = COLOUR_RGB ( '',1.000000000000000000, 0.8117647058823529438, 0.5019607843137254832 ) ;
#258 = DIRECTION ( 'NONE',  ( 0.000000000000000000, 0.000000000000000000, -1.000000000000000000 ) ) ;
#259 = CYLINDRICAL_SURFACE ( 'NONE', #274, 6.900000000000000355 ) ;
#260 = ADVANCED_FACE ( 'NONE', ( #100 ), #343, .F. ) ;
#261 = EDGE_LOOP ( 'NONE', ( #240, #376, #73, #527 ) ) ;
#262 = ORIENTED_EDGE ( 'NONE', *, *, #458, .F. ) ;
#263 = EDGE_CURVE ( 'NONE', #134, #576, #92, .T. ) ;
#264 = SURFACE_STYLE_USAGE ( .BOTH. , #72 ) ;
#265 = CIRCLE ( 'NONE', #363, 6.500000000000000888 ) ;
#266 = AXIS2_PLACEMENT_3D ( 'NONE', #512, #568, #375 ) ;
#267 = ADVANCED_FACE ( 'NONE', ( #491 ), #102, .T. ) ;
#268 = ORIENTED_EDGE ( 'NONE', *, *, #495, .T. ) ;
#269 = VERTEX_POINT ( 'NONE', #248 ) ;
#270 = CARTESIAN_POINT ( 'NONE',  ( 0.000000000000000000, 0.000000000000000000, 6.600000000000000533 ) ) ;
#271 = EDGE_LOOP ( 'NONE', ( #571, #457, #596, #172 ) ) ;
#272 =( GEOMETRIC_REPRESENTATION_CONTEXT ( 3 ) GLOBAL_UNCERTAINTY_ASSIGNED_CONTEXT ( ( #476 ) ) GLOBAL_UNIT_ASSIGNED_CONTEXT ( ( #5, #187, #390 ) ) REPRESENTATION_CONTEXT ( 'NONE', 'WORKASPACE' ) );
#273 = VECTOR ( 'NONE', #79, 1000.000000000000000 ) ;
#274 = AXIS2_PLACEMENT_3D ( 'NONE', #209, #206, #194 ) ;
#275 = CARTESIAN_POINT ( 'NONE',  ( 8.266365894244635319E-16, 7.500000000000000000, -6.600000000000000533 ) ) ;
#276 = EDGE_CURVE ( 'NONE', #601, #412, #606, .T. ) ;
#277 = ORIENTED_EDGE ( 'NONE', *, *, #519, .T. ) ;
#278 = PLANE ( 'NONE',  #114 ) ;
#279 = CARTESIAN_POINT ( 'NONE',  ( 0.000000000000000000, 6.899999999999999467, 1.500000000000000222 ) ) ;
#280 = DIRECTION ( 'NONE',  ( -1.000000000000000000, 0.000000000000000000, 0.000000000000000000 ) ) ;
#281 =( NAMED_UNIT ( * ) SI_UNIT ( $, .STERADIAN. ) SOLID_ANGLE_UNIT ( ) );
#282 = ADVANCED_FACE ( 'NONE', ( #181 ), #384, .T. ) ;
#283 = PLANE ( 'NONE',  #19 ) ;
#284 = CARTESIAN_POINT ( 'NONE',  ( 0.000000000000000000, -5.500000000000000000, 0.000000000000000000 ) ) ;
#285 = DIRECTION ( 'NONE',  ( -0.000000000000000000, 1.000000000000000000, -0.000000000000000000 ) ) ;
#286 = COLOUR_RGB ( '',0.2509803921568627416, 0.2509803921568627416, 0.2509803921568627416 ) ;
#287 = EDGE_CURVE ( 'NONE', #159, #513, #459, .T. ) ;
#288 = DIRECTION ( 'NONE',  ( 0.000000000000000000, 1.000000000000000000, 0.000000000000000000 ) ) ;
#289 = ORIENTED_EDGE ( 'NONE', *, *, #287, .T. ) ;
#290 = PRODUCT_RELATED_PRODUCT_CATEGORY ( 'part', '', ( #553 ) ) ;
#291 = LINE ( 'NONE', #344, #448 ) ;
#292 = EDGE_CURVE ( 'NONE', #54, #369, #308, .T. ) ;
#293 = ORIENTED_EDGE ( 'NONE', *, *, #147, .T. ) ;
#294 = DIRECTION ( 'NONE',  ( 0.000000000000000000, 1.000000000000000000, 0.000000000000000000 ) ) ;
#295 = CARTESIAN_POINT ( 'NONE',  ( -3.799999999999999822, -11.98994949366116813, -0.3500000000000002554 ) ) ;
#296 =( GEOMETRIC_REPRESENTATION_CONTEXT ( 3 ) GLOBAL_UNCERTAINTY_ASSIGNED_CONTEXT ( ( #83 ) ) GLOBAL_UNIT_ASSIGNED_CONTEXT ( ( #315, #135, #241 ) ) REPRESENTATION_CONTEXT ( 'NONE', 'WORKASPACE' ) );
#297 = DIRECTION ( 'NONE',  ( 0.000000000000000000, 1.000000000000000000, 0.000000000000000000 ) ) ;
#298 = CLOSED_SHELL ( 'NONE', ( #525, #260, #413, #367 ) ) ;
#299 = DIRECTION ( 'NONE',  ( 0.000000000000000000, 0.000000000000000000, -1.000000000000000000 ) ) ;
#300 = EDGE_CURVE ( 'NONE', #601, #210, #173, .T. ) ;
#301 = CARTESIAN_POINT ( 'NONE',  ( 3.799999999999999822, -11.98994949366116813, 0.000000000000000000 ) ) ;
#302 = DIRECTION ( 'NONE',  ( 0.000000000000000000, -1.000000000000000000, 0.000000000000000000 ) ) ;
#303 = DIRECTION ( 'NONE',  ( 0.000000000000000000, 0.000000000000000000, 1.000000000000000000 ) ) ;
#304 = CARTESIAN_POINT ( 'NONE',  ( 0.000000000000000000, 0.000000000000000000, 0.000000000000000000 ) ) ;
#305 = PLANE ( 'NONE',  #481 ) ;
#306 = SURFACE_SIDE_STYLE ('',( #61 ) ) ;
#307 = VERTEX_POINT ( 'NONE', #406 ) ;
#308 = CIRCLE ( 'NONE', #589, 1.500000000000000222 ) ;
#309 = FACE_OUTER_BOUND ( 'NONE', #97, .T. ) ;
#310 = CIRCLE ( 'NONE', #122, 0.3500000000000002554 ) ;
#311 = DIRECTION ( 'NONE',  ( 0.000000000000000000, 0.000000000000000000, -1.000000000000000000 ) ) ;
#312 = DIRECTION ( 'NONE',  ( -0.000000000000000000, -1.000000000000000000, -0.000000000000000000 ) ) ;
#313 = EDGE_CURVE ( 'NONE', #409, #78, #454, .T. ) ;
#314 = DIRECTION ( 'NONE',  ( -0.000000000000000000, 1.000000000000000000, -0.000000000000000000 ) ) ;
#315 =( LENGTH_UNIT ( ) NAMED_UNIT ( * ) SI_UNIT ( .MILLI., .METRE. ) );
#316 = ORIENTED_EDGE ( 'NONE', *, *, #160, .T. ) ;
#317 = AXIS2_PLACEMENT_3D ( 'NONE', #13, #395, #198 ) ;
#318 = ORIENTED_EDGE ( 'NONE', *, *, #331, .T. ) ;
#319 = EDGE_CURVE ( 'NONE', #71, #574, #265, .T. ) ;
#320 = CARTESIAN_POINT ( 'NONE',  ( 0.000000000000000000, 7.500000000000000000, 0.000000000000000000 ) ) ;
#321 = VERTEX_POINT ( 'NONE', #408 ) ;
#322 = CARTESIAN_POINT ( 'NONE',  ( 0.000000000000000000, 7.500000000000000000, -6.900000000000000355 ) ) ;
#323 = ORIENTED_EDGE ( 'NONE', *, *, #602, .F. ) ;
#324 = AXIS2_PLACEMENT_3D ( 'NONE', #464, #203, #398 ) ;
#325 = AXIS2_PLACEMENT_3D ( 'NONE', #109, #58, #442 ) ;
#326 = DIRECTION ( 'NONE',  ( 0.000000000000000000, 0.000000000000000000, 1.000000000000000000 ) ) ;
#327 = EDGE_LOOP ( 'NONE', ( #186, #419, #462, #277 ) ) ;
#328 = UNCERTAINTY_MEASURE_WITH_UNIT (LENGTH_MEASURE( 1.000000000000000082E-05 ), #196, 'distance_accuracy_value', 'NONE');
#329 = FACE_OUTER_BOUND ( 'NONE', #271, .T. ) ;
#330 = EDGE_LOOP ( 'NONE', ( #170, #268 ) ) ;
#331 = EDGE_CURVE ( 'NONE', #123, #565, #447, .T. ) ;
#332 = DIRECTION ( 'NONE',  ( 0.000000000000000000, 1.000000000000000000, 0.000000000000000000 ) ) ;
#333 = DIRECTION ( 'NONE',  ( 0.000000000000000000, 0.000000000000000000, -1.000000000000000000 ) ) ;
#334 = EDGE_CURVE ( 'NONE', #369, #385, #205, .T. ) ;
#335 = VECTOR ( 'NONE', #356, 1000.000000000000000 ) ;
#336 =( GEOMETRIC_REPRESENTATION_CONTEXT ( 3 ) GLOBAL_UNCERTAINTY_ASSIGNED_CONTEXT ( ( #190 ) ) GLOBAL_UNIT_ASSIGNED_CONTEXT ( ( #489, #16, #436 ) ) REPRESENTATION_CONTEXT ( 'NONE', 'WORKASPACE' ) );
#337 = CLOSED_SHELL ( 'NONE', ( #193, #391, #371, #267, #174, #282, #444, #549, #21, #374, #214, #189, #180, #449 ) ) ;
#338 = DIRECTION ( 'NONE',  ( 0.000000000000000000, -1.000000000000000000, 0.000000000000000000 ) ) ;
#339 = ORIENTED_EDGE ( 'NONE', *, *, #403, .T. ) ;
#340 = CARTESIAN_POINT ( 'NONE',  ( 0.000000000000000000, 0.2999999999999999334, 0.000000000000000000 ) ) ;
#341 = DIRECTION ( 'NONE',  ( 0.000000000000000000, 0.000000000000000000, 1.000000000000000000 ) ) ;
#342 = VERTEX_POINT ( 'NONE', #552 ) ;
#343 = PLANE ( 'NONE',  #156 ) ;
#344 = CARTESIAN_POINT ( 'NONE',  ( 0.000000000000000000, 0.2999999999999999889, -6.500000000000000888 ) ) ;
#345 = EDGE_LOOP ( 'NONE', ( #32, #381, #37, #39 ) ) ;
#346 = DIRECTION ( 'NONE',  ( 0.000000000000000000, 0.000000000000000000, 1.000000000000000000 ) ) ;
#347 = AXIS2_PLACEMENT_3D ( 'NONE', #124, #133, #35 ) ;
#348 = CARTESIAN_POINT ( 'NONE',  ( 0.000000000000000000, 0.2999999999999999889, 0.000000000000000000 ) ) ;
#349 = ORIENTED_EDGE ( 'NONE', *, *, #319, .T. ) ;
#350 = DIRECTION ( 'NONE',  ( -0.000000000000000000, 1.000000000000000000, -0.000000000000000000 ) ) ;
#351 = DIRECTION ( 'NONE',  ( 0.000000000000000000, 0.000000000000000000, 1.000000000000000000 ) ) ;
#352 = CARTESIAN_POINT ( 'NONE',  ( 0.000000000000000000, 6.899999999999999467, 0.000000000000000000 ) ) ;
#353 = ADVANCED_FACE ( 'NONE', ( #499 ), #219, .T. ) ;
#354 = TOROIDAL_SURFACE ( 'NONE', #347, 6.600000000000000533, 0.2999999999999999889 ) ;
#355 =( NAMED_UNIT ( * ) PLANE_ANGLE_UNIT ( ) SI_UNIT ( $, .RADIAN. ) );
#356 = DIRECTION ( 'NONE',  ( -0.000000000000000000, 1.000000000000000000, -0.000000000000000000 ) ) ;
#357 = PRODUCT_DEFINITION_SHAPE ( 'NONE', 'NONE',  #23 ) ;
#358 = EDGE_CURVE ( 'NONE', #269, #148, #500, .T. ) ;
#359 = DIRECTION ( 'NONE',  ( -0.000000000000000000, 1.000000000000000000, -0.000000000000000000 ) ) ;
#360 = ORIENTED_EDGE ( 'NONE', *, *, #590, .T. ) ;
#361 = APPLICATION_CONTEXT ( 'automotive_design' ) ;
#362 = ORIENTED_EDGE ( 'NONE', *, *, #276, .F. ) ;
#363 = AXIS2_PLACEMENT_3D ( 'NONE', #117, #15, #311 ) ;
#364 = ORIENTED_EDGE ( 'NONE', *, *, #76, .T. ) ;
#365 = TOROIDAL_SURFACE ( 'NONE', #420, 6.600000000000000533, 0.2999999999999999889 ) ;
#366 = AXIS2_PLACEMENT_3D ( 'NONE', #116, #107, #303 ) ;
#367 = ADVANCED_FACE ( 'NONE', ( #443 ), #540, .T. ) ;
#368 = LINE ( 'NONE', #322, #211 ) ;
#369 = VERTEX_POINT ( 'NONE', #31 ) ;
#370 = CARTESIAN_POINT ( 'NONE',  ( 0.000000000000000000, 0.000000000000000000, 0.000000000000000000 ) ) ;
#371 = ADVANCED_FACE ( 'NONE', ( #497 ), #365, .T. ) ;
#372 = DIRECTION ( 'NONE',  ( 0.000000000000000000, -0.000000000000000000, 1.000000000000000000 ) ) ;
#373 = EDGE_LOOP ( 'NONE', ( #562, #439, #360, #65 ) ) ;
#374 = ADVANCED_FACE ( 'NONE', ( #494 ), #354, .T. ) ;
#375 = DIRECTION ( 'NONE',  ( 0.000000000000000000, 0.000000000000000000, 1.000000000000000000 ) ) ;
#376 = ORIENTED_EDGE ( 'NONE', *, *, #276, .T. ) ;
#377 = CIRCLE ( 'NONE', #542, 6.600000000000000533 ) ;
#378 = AXIS2_PLACEMENT_3D ( 'NONE', #103, #359, #154 ) ;
#379 = DIRECTION ( 'NONE',  ( 0.000000000000000000, -0.000000000000000000, -1.000000000000000000 ) ) ;
#380 = ADVANCED_FACE ( 'NONE', ( #427 ), #283, .F. ) ;
#381 = ORIENTED_EDGE ( 'NONE', *, *, #70, .T. ) ;
#382 = CARTESIAN_POINT ( 'NONE',  ( 0.000000000000000000, 6.899999999999999467, 0.000000000000000000 ) ) ;
#383 = FACE_OUTER_BOUND ( 'NONE', #127, .T. ) ;
#384 = CYLINDRICAL_SURFACE ( 'NONE', #200, 6.900000000000000355 ) ;
#385 = VERTEX_POINT ( 'NONE', #431 ) ;
#386 = SURFACE_SIDE_STYLE ('',( #577 ) ) ;
#387 = AXIS2_PLACEMENT_3D ( 'NONE', #505, #108, #417 ) ;
#388 = DIRECTION ( 'NONE',  ( 0.000000000000000000, 0.000000000000000000, 1.000000000000000000 ) ) ;
#389 = ORIENTED_EDGE ( 'NONE', *, *, #358, .F. ) ;
#390 =( NAMED_UNIT ( * ) SI_UNIT ( $, .STERADIAN. ) SOLID_ANGLE_UNIT ( ) );
#391 = ADVANCED_FACE ( 'NONE', ( #605 ), #175, .F. ) ;
#392 = CARTESIAN_POINT ( 'NONE',  ( 0.000000000000000000, 7.500000000000000000, 0.000000000000000000 ) ) ;
#393 = ORIENTED_EDGE ( 'NONE', *, *, #239, .F. ) ;
#394 = DIRECTION ( 'NONE',  ( 0.000000000000000000, 0.000000000000000000, 1.000000000000000000 ) ) ;
#395 = DIRECTION ( 'NONE',  ( -0.000000000000000000, 1.000000000000000000, -0.000000000000000000 ) ) ;
#396 = EDGE_CURVE ( 'NONE', #210, #601, #34, .T. ) ;
#397 = DIRECTION ( 'NONE',  ( 0.000000000000000000, -1.000000000000000000, 0.000000000000000000 ) ) ;
#398 = DIRECTION ( 'NONE',  ( 0.000000000000000000, -0.000000000000000000, -1.000000000000000000 ) ) ;
#399 = ORIENTED_EDGE ( 'NONE', *, *, #9, .T. ) ;
#400 = AXIS2_PLACEMENT_3D ( 'NONE', #250, #582, #57 ) ;
#401 = CIRCLE ( 'NONE', #492, 0.3500000000000002554 ) ;
#402 =( NAMED_UNIT ( * ) SI_UNIT ( $, .STERADIAN. ) SOLID_ANGLE_UNIT ( ) );
#403 = EDGE_CURVE ( 'NONE', #601, #75, #368, .T. ) ;
#404 = DIRECTION ( 'NONE',  ( 0.000000000000000000, 0.000000000000000000, 1.000000000000000000 ) ) ;
#405 = LINE ( 'NONE', #112, #421 ) ;
#406 = CARTESIAN_POINT ( 'NONE',  ( -3.799999999999999822, 0.2999999999999999889, -0.3500000000000002554 ) ) ;
#407 = PLANE ( 'NONE',  #325 ) ;
#408 = CARTESIAN_POINT ( 'NONE',  ( -3.799999999999999822, 0.2999999999999999889, 0.3500000000000002554 ) ) ;
#409 = VERTEX_POINT ( 'NONE', #171 ) ;
#410 = STYLED_ITEM ( 'NONE', ( #572 ), #220 ) ;
#411 = CARTESIAN_POINT ( 'NONE',  ( 0.000000000000000000, 0.2999999999999999889, 0.000000000000000000 ) ) ;
#412 = VERTEX_POINT ( 'NONE', #275 ) ;
#413 = ADVANCED_FACE ( 'NONE', ( #329 ), #563, .T. ) ;
#414 = SURFACE_STYLE_FILL_AREA ( #215 ) ;
#415 = ORIENTED_EDGE ( 'NONE', *, *, #12, .T. ) ;
#416 = ORIENTED_EDGE ( 'NONE', *, *, #533, .F. ) ;
#417 = DIRECTION ( 'NONE',  ( 0.000000000000000000, 0.000000000000000000, -1.000000000000000000 ) ) ;
#418 =( GEOMETRIC_REPRESENTATION_CONTEXT ( 3 ) GLOBAL_UNCERTAINTY_ASSIGNED_CONTEXT ( ( #438 ) ) GLOBAL_UNIT_ASSIGNED_CONTEXT ( ( #446, #355, #402 ) ) REPRESENTATION_CONTEXT ( 'NONE', 'WORKASPACE' ) );
#419 = ORIENTED_EDGE ( 'NONE', *, *, #160, .F. ) ;
#420 = AXIS2_PLACEMENT_3D ( 'NONE', #548, #59, #62 ) ;
#421 = VECTOR ( 'NONE', #578, 1000.000000000000000 ) ;
#422 = DIRECTION ( 'NONE',  ( -0.000000000000000000, 1.000000000000000000, -0.000000000000000000 ) ) ;
#423 = ORIENTED_EDGE ( 'NONE', *, *, #292, .F. ) ;
#424 = EDGE_CURVE ( 'NONE', #576, #78, #551, .T. ) ;
#425 = DIRECTION ( 'NONE',  ( 0.000000000000000000, -1.000000000000000000, 0.000000000000000000 ) ) ;
#426 = ORIENTED_EDGE ( 'NONE', *, *, #242, .T. ) ;
#427 = FACE_OUTER_BOUND ( 'NONE', #30, .T. ) ;
#428 = CARTESIAN_POINT ( 'NONE',  ( 0.000000000000000000, 0.2999999999999999334, -6.900000000000000355 ) ) ;
#429 = AXIS2_PLACEMENT_3D ( 'NONE', #320, #45, #372 ) ;
#430 = CIRCLE ( 'NONE', #517, 0.2999999999999999334 ) ;
#431 = CARTESIAN_POINT ( 'NONE',  ( 1.836970198721030181E-16, 7.500000000000000000, -1.500000000000000222 ) ) ;
#432 = DIRECTION ( 'NONE',  ( 0.000000000000000000, -0.000000000000000000, 1.000000000000000000 ) ) ;
#433 = DIRECTION ( 'NONE',  ( 1.224646799147353207E-16, 0.000000000000000000, -1.000000000000000000 ) ) ;
#434 = LINE ( 'NONE', #84, #581 ) ;
#435 = ORIENTED_EDGE ( 'NONE', *, *, #424, .F. ) ;
#436 =( NAMED_UNIT ( * ) SI_UNIT ( $, .STERADIAN. ) SOLID_ANGLE_UNIT ( ) );
#437 = EDGE_LOOP ( 'NONE', ( #120, #604 ) ) ;
#438 = UNCERTAINTY_MEASURE_WITH_UNIT (LENGTH_MEASURE( 1.000000000000000082E-05 ), #446, 'distance_accuracy_value', 'NONE');
#439 = ORIENTED_EDGE ( 'NONE', *, *, #334, .T. ) ;
#440 = EDGE_CURVE ( 'NONE', #210, #509, #46, .T. ) ;
#441 = CARTESIAN_POINT ( 'NONE',  ( 0.000000000000000000, 0.000000000000000000, 0.000000000000000000 ) ) ;
#442 = DIRECTION ( 'NONE',  ( 0.000000000000000000, -0.000000000000000000, 1.000000000000000000 ) ) ;
#443 = FACE_OUTER_BOUND ( 'NONE', #145, .T. ) ;
#444 = ADVANCED_FACE ( 'NONE', ( #86, #233 ), #225, .T. ) ;
#445 = DIRECTION ( 'NONE',  ( -0.000000000000000000, -1.000000000000000000, -0.000000000000000000 ) ) ;
#446 =( LENGTH_UNIT ( ) NAMED_UNIT ( * ) SI_UNIT ( .MILLI., .METRE. ) );
#447 = CIRCLE ( 'NONE', #255, 0.3500000000000002554 ) ;
#448 = VECTOR ( 'NONE', #445, 1000.000000000000000 ) ;
#449 = ADVANCED_FACE ( 'NONE', ( #126 ), #278, .T. ) ;
#450 = CARTESIAN_POINT ( 'NONE',  ( 8.450062914116737647E-16, 7.200000000000000178, 6.900000000000000355 ) ) ;
#451 = ADVANCED_BREP_SHAPE_REPRESENTATION ( 'CPI-1375-80T', ( #220, #217, #208, #212 ), #336 ) ;
#452 = ORIENTED_EDGE ( 'NONE', *, *, #70, .F. ) ;
#453 = DIRECTION ( 'NONE',  ( -0.000000000000000000, 1.000000000000000000, -0.000000000000000000 ) ) ;
#454 = LINE ( 'NONE', #583, #18 ) ;
#455 = ORIENTED_EDGE ( 'NONE', *, *, #519, .F. ) ;
#456 = DIRECTION ( 'NONE',  ( 0.000000000000000000, 0.000000000000000000, -1.000000000000000000 ) ) ;
#457 = ORIENTED_EDGE ( 'NONE', *, *, #168, .F. ) ;
#458 = EDGE_CURVE ( 'NONE', #24, #385, #224, .T. ) ;
#459 = CIRCLE ( 'NONE', #556, 6.600000000000000533 ) ;
#460 = AXIS2_PLACEMENT_3D ( 'NONE', #537, #338, #101 ) ;
#461 = DIRECTION ( 'NONE',  ( 0.000000000000000000, 0.000000000000000000, 1.000000000000000000 ) ) ;
#462 = ORIENTED_EDGE ( 'NONE', *, *, #533, .T. ) ;
#463 = ORIENTED_EDGE ( 'NONE', *, *, #334, .F. ) ;
#464 = CARTESIAN_POINT ( 'NONE',  ( -3.799999999999999822, -6.999999999999999112, 0.000000000000000000 ) ) ;
#465 = ORIENTED_EDGE ( 'NONE', *, *, #396, .T. ) ;
#466 = CARTESIAN_POINT ( 'NONE',  ( 0.000000000000000000, 0.000000000000000000, 0.000000000000000000 ) ) ;
#467 = EDGE_CURVE ( 'NONE', #509, #412, #26, .T. ) ;
#468 = AXIS2_PLACEMENT_3D ( 'NONE', #136, #332, #474 ) ;
#469 = EDGE_LOOP ( 'NONE', ( #455, #389 ) ) ;
#470 = MECHANICAL_DESIGN_GEOMETRIC_PRESENTATION_REPRESENTATION (  '', ( #598 ), #418 ) ;
#471 = DIRECTION ( 'NONE',  ( 0.000000000000000000, 0.000000000000000000, 1.000000000000000000 ) ) ;
#472 = EDGE_LOOP ( 'NONE', ( #323, #226 ) ) ;
#473 = EDGE_CURVE ( 'NONE', #71, #269, #229, .T. ) ;
#474 = DIRECTION ( 'NONE',  ( 0.000000000000000000, 0.000000000000000000, 1.000000000000000000 ) ) ;
#475 = CARTESIAN_POINT ( 'NONE',  ( 0.000000000000000000, 7.500000000000000000, 1.500000000000000222 ) ) ;
#476 = UNCERTAINTY_MEASURE_WITH_UNIT (LENGTH_MEASURE( 1.000000000000000082E-05 ), #5, 'distance_accuracy_value', 'NONE');
#477 = CARTESIAN_POINT ( 'NONE',  ( 0.000000000000000000, 7.200000000000000178, 0.000000000000000000 ) ) ;
#478 = CARTESIAN_POINT ( 'NONE',  ( 0.000000000000000000, 0.2999999999999999334, 0.000000000000000000 ) ) ;
#479 = AXIS2_PLACEMENT_3D ( 'NONE', #43, #609, #567 ) ;
#480 = CARTESIAN_POINT ( 'NONE',  ( 8.082668874372532006E-16, 7.200000000000000178, -6.600000000000000533 ) ) ;
#481 = AXIS2_PLACEMENT_3D ( 'NONE', #441, #191, #140 ) ;
#482 = CIRCLE ( 'NONE', #36, 6.500000000000000888 ) ;
#483 = CARTESIAN_POINT ( 'NONE',  ( 3.799999999999999822, 0.2999999999999999889, 0.000000000000000000 ) ) ;
#484 = ORIENTED_EDGE ( 'NONE', *, *, #300, .T. ) ;
#485 = FILL_AREA_STYLE_COLOUR ( '', #286 ) ;
#486 = ORIENTED_EDGE ( 'NONE', *, *, #440, .T. ) ;
#487 = DIRECTION ( 'NONE',  ( 0.000000000000000000, -1.000000000000000000, 0.000000000000000000 ) ) ;
#488 = PRODUCT_CONTEXT ( 'NONE', #41, 'mechanical' ) ;
#489 =( LENGTH_UNIT ( ) NAMED_UNIT ( * ) SI_UNIT ( .MILLI., .METRE. ) );
#490 = DIRECTION ( 'NONE',  ( 0.000000000000000000, 0.000000000000000000, 1.000000000000000000 ) ) ;
#491 = FACE_OUTER_BOUND ( 'NONE', #345, .T. ) ;
#492 = AXIS2_PLACEMENT_3D ( 'NONE', #536, #99, #333 ) ;
#493 = FACE_OUTER_BOUND ( 'NONE', #111, .T. ) ;
#494 = FACE_OUTER_BOUND ( 'NONE', #125, .T. ) ;
#495 = EDGE_CURVE ( 'NONE', #369, #54, #152, .T. ) ;
#496 = CARTESIAN_POINT ( 'NONE',  ( -3.799999999999999822, -6.999999999999999112, 0.000000000000000000 ) ) ;
#497 = FACE_OUTER_BOUND ( 'NONE', #261, .T. ) ;
#498 = PRESENTATION_STYLE_ASSIGNMENT (( #64 ) ) ;
#499 = FACE_OUTER_BOUND ( 'NONE', #68, .T. ) ;
#500 = CIRCLE ( 'NONE', #387, 6.500000000000000888 ) ;
#501 = PRESENTATION_LAYER_ASSIGNMENT (  '', '', ( #142 ) ) ;
#502 = CYLINDRICAL_SURFACE ( 'NONE', #378, 0.3500000000000002554 ) ;
#503 = ORIENTED_EDGE ( 'NONE', *, *, #584, .T. ) ;
#504 = DIRECTION ( 'NONE',  ( 0.000000000000000000, 0.000000000000000000, -1.000000000000000000 ) ) ;
#505 = CARTESIAN_POINT ( 'NONE',  ( 0.000000000000000000, 0.000000000000000000, 0.000000000000000000 ) ) ;
#506 = ORIENTED_EDGE ( 'NONE', *, *, #403, .F. ) ;
#507 = EDGE_LOOP ( 'NONE', ( #316, #349 ) ) ;
#508 = AXIS2_PLACEMENT_3D ( 'NONE', #382, #422, #471 ) ;
#509 = VERTEX_POINT ( 'NONE', #514 ) ;
#510 = EDGE_CURVE ( 'NONE', #210, #342, #434, .T. ) ;
#511 = ORIENTED_EDGE ( 'NONE', *, *, #554, .T. ) ;
#512 = CARTESIAN_POINT ( 'NONE',  ( 0.000000000000000000, 7.500000000000000000, 0.000000000000000000 ) ) ;
#513 = VERTEX_POINT ( 'NONE', #270 ) ;
#514 = CARTESIAN_POINT ( 'NONE',  ( 0.000000000000000000, 7.500000000000000000, 6.600000000000000533 ) ) ;
#515 = CIRCLE ( 'NONE', #104, 0.3500000000000002554 ) ;
#516 = ORIENTED_EDGE ( 'NONE', *, *, #313, .T. ) ;
#517 = AXIS2_PLACEMENT_3D ( 'NONE', #569, #48, #42 ) ;
#518 = DIRECTION ( 'NONE',  ( 0.000000000000000000, -0.000000000000000000, -1.000000000000000000 ) ) ;
#519 = EDGE_CURVE ( 'NONE', #148, #269, #121, .T. ) ;
#520 = ORIENTED_EDGE ( 'NONE', *, *, #590, .F. ) ;
#521 = APPLICATION_PROTOCOL_DEFINITION ( 'draft international standard', 'automotive_design', 1998, #41 ) ;
#522 = CARTESIAN_POINT ( 'NONE',  ( 0.000000000000000000, 7.200000000000000178, 6.600000000000000533 ) ) ;
#523 = CARTESIAN_POINT ( 'NONE',  ( 3.799999999999999822, 0.2999999999999999889, 0.3500000000000002554 ) ) ;
#524 = DIRECTION ( 'NONE',  ( 0.000000000000000000, -0.000000000000000000, -1.000000000000000000 ) ) ;
#525 = ADVANCED_FACE ( 'NONE', ( #546 ), #63, .T. ) ;
#526 = CARTESIAN_POINT ( 'NONE',  ( 7.960204194457796463E-16, 0.2999999999999999889, 6.500000000000000888 ) ) ;
#527 = ORIENTED_EDGE ( 'NONE', *, *, #440, .F. ) ;
#528 = AXIS2_PLACEMENT_3D ( 'NONE', #352, #453, #119 ) ;
#529 = FILL_AREA_STYLE ('',( #485 ) ) ;
#530 = AXIS2_PLACEMENT_3D ( 'NONE', #466, #302, #96 ) ;
#531 = AXIS2_PLACEMENT_3D ( 'NONE', #151, #67, #544 ) ;
#532 = SURFACE_STYLE_FILL_AREA ( #139 ) ;
#533 = EDGE_CURVE ( 'NONE', #574, #148, #291, .T. ) ;
#534 = ORIENTED_EDGE ( 'NONE', *, *, #9, .F. ) ;
#535 = CARTESIAN_POINT ( 'NONE',  ( -3.799999999999999822, -6.999999999999999112, 0.3500000000000002554 ) ) ;
#536 = CARTESIAN_POINT ( 'NONE',  ( -3.799999999999999822, 0.2999999999999999889, 0.000000000000000000 ) ) ;
#537 = CARTESIAN_POINT ( 'NONE',  ( -3.799999999999999822, 0.2999999999999999889, 0.000000000000000000 ) ) ;
#538 = ORIENTED_EDGE ( 'NONE', *, *, #138, .F. ) ;
#539 = EDGE_CURVE ( 'NONE', #342, #75, #256, .T. ) ;
#540 = PLANE ( 'NONE',  #324 ) ;
#541 = MECHANICAL_DESIGN_GEOMETRIC_PRESENTATION_REPRESENTATION (  '', ( #410 ), #272 ) ;
#542 = AXIS2_PLACEMENT_3D ( 'NONE', #182, #149, #346 ) ;
#543 = CARTESIAN_POINT ( 'NONE',  ( 3.799999999999999822, -5.500000000000000000, 0.000000000000000000 ) ) ;
#544 = DIRECTION ( 'NONE',  ( 0.000000000000000000, 0.000000000000000000, -1.000000000000000000 ) ) ;
#545 = CARTESIAN_POINT ( 'NONE',  ( 1.836970198721030181E-16, 6.899999999999999467, -1.500000000000000222 ) ) ;
#546 = FACE_OUTER_BOUND ( 'NONE', #87, .T. ) ;
#547 = CARTESIAN_POINT ( 'NONE',  ( 0.000000000000000000, 0.000000000000000000, -6.500000000000000888 ) ) ;
#548 = CARTESIAN_POINT ( 'NONE',  ( 0.000000000000000000, 7.200000000000000178, 0.000000000000000000 ) ) ;
#549 = ADVANCED_FACE ( 'NONE', ( #60, #575 ), #305, .F. ) ;
#550 = CYLINDRICAL_SURFACE ( 'NONE', #531, 6.500000000000000888 ) ;
#551 = CIRCLE ( 'NONE', #564, 0.3500000000000002554 ) ;
#552 = CARTESIAN_POINT ( 'NONE',  ( 8.450062914116737647E-16, 0.2999999999999999334, 6.900000000000000355 ) ) ;
#553 = PRODUCT ( 'CPI-1375-80T', 'CPI-1375-80T', '', ( #488 ) ) ;
#554 = EDGE_CURVE ( 'NONE', #513, #159, #377, .T. ) ;
#555 = ORIENTED_EDGE ( 'NONE', *, *, #424, .T. ) ;
#556 = AXIS2_PLACEMENT_3D ( 'NONE', #304, #110, #404 ) ;
#557 = VECTOR ( 'NONE', #3, 1000.000000000000000 ) ;
#558 = ORIENTED_EDGE ( 'NONE', *, *, #76, .F. ) ;
#559 = DIRECTION ( 'NONE',  ( 0.000000000000000000, 0.000000000000000000, 1.000000000000000000 ) ) ;
#560 = ORIENTED_EDGE ( 'NONE', *, *, #331, .F. ) ;
#561 = DIRECTION ( 'NONE',  ( -1.000000000000000000, 0.000000000000000000, 0.000000000000000000 ) ) ;
#562 = ORIENTED_EDGE ( 'NONE', *, *, #495, .F. ) ;
#563 = CYLINDRICAL_SURFACE ( 'NONE', #74, 0.3500000000000002554 ) ;
#564 = AXIS2_PLACEMENT_3D ( 'NONE', #90, #425, #40 ) ;
#565 = VERTEX_POINT ( 'NONE', #535 ) ;
#566 = ORIENTED_EDGE ( 'NONE', *, *, #263, .T. ) ;
#567 = DIRECTION ( 'NONE',  ( 0.000000000000000000, 0.000000000000000000, 1.000000000000000000 ) ) ;
#568 = DIRECTION ( 'NONE',  ( 0.000000000000000000, 1.000000000000000000, 0.000000000000000000 ) ) ;
#569 = CARTESIAN_POINT ( 'NONE',  ( 8.082668874372532006E-16, 0.2999999999999999334, -6.600000000000000533 ) ) ;
#570 = CARTESIAN_POINT ( 'NONE',  ( 0.000000000000000000, 7.200000000000000178, -6.900000000000000355 ) ) ;
#571 = ORIENTED_EDGE ( 'NONE', *, *, #594, .F. ) ;
#572 = PRESENTATION_STYLE_ASSIGNMENT (( #51 ) ) ;
#573 = MECHANICAL_DESIGN_GEOMETRIC_PRESENTATION_REPRESENTATION (  '', ( #142 ), #176 ) ;
#574 = VERTEX_POINT ( 'NONE', #254 ) ;
#575 = FACE_OUTER_BOUND ( 'NONE', #167, .T. ) ;
#576 = VERTEX_POINT ( 'NONE', #53 ) ;
#577 = SURFACE_STYLE_FILL_AREA ( #529 ) ;
#578 = DIRECTION ( 'NONE',  ( -0.000000000000000000, 1.000000000000000000, -0.000000000000000000 ) ) ;
#579 = CARTESIAN_POINT ( 'NONE',  ( 0.000000000000000000, 7.500000000000000000, 0.000000000000000000 ) ) ;
#580 = ORIENTED_EDGE ( 'NONE', *, *, #313, .F. ) ;
#581 = VECTOR ( 'NONE', #166, 1000.000000000000000 ) ;
#582 = DIRECTION ( 'NONE',  ( 0.000000000000000000, 1.000000000000000000, 0.000000000000000000 ) ) ;
#583 = CARTESIAN_POINT ( 'NONE',  ( 3.799999999999999822, -11.98994949366116813, 0.3500000000000002554 ) ) ;
#584 = EDGE_CURVE ( 'NONE', #134, #409, #515, .T. ) ;
#585 = CYLINDRICAL_SURFACE ( 'NONE', #528, 1.500000000000000222 ) ;
#586 = DIRECTION ( 'NONE',  ( 0.000000000000000000, -1.000000000000000000, 0.000000000000000000 ) ) ;
#587 = CARTESIAN_POINT ( 'NONE',  ( -3.799999999999999822, -6.999999999999999112, 0.000000000000000000 ) ) ;
#588 = ORIENTED_EDGE ( 'NONE', *, *, #510, .F. ) ;
#589 = AXIS2_PLACEMENT_3D ( 'NONE', #207, #153, #106 ) ;
#590 = EDGE_CURVE ( 'NONE', #385, #24, #201, .T. ) ;
#591 = CIRCLE ( 'NONE', #202, 0.3500000000000002554 ) ;
#592 = CARTESIAN_POINT ( 'NONE',  ( 8.266365894244635319E-16, 0.000000000000000000, -6.600000000000000533 ) ) ;
#593 = EDGE_LOOP ( 'NONE', ( #262, #520 ) ) ;
#594 = EDGE_CURVE ( 'NONE', #123, #307, #238, .T. ) ;
#595 = PRESENTATION_STYLE_ASSIGNMENT (( #264 ) ) ;
#596 = ORIENTED_EDGE ( 'NONE', *, *, #138, .T. ) ;
#597 = ORIENTED_EDGE ( 'NONE', *, *, #473, .T. ) ;
#598 = STYLED_ITEM ( 'NONE', ( #498 ), #208 ) ;
#599 = ORIENTED_EDGE ( 'NONE', *, *, #168, .T. ) ;
#600 = DIRECTION ( 'NONE',  ( -0.000000000000000000, -1.000000000000000000, -0.000000000000000000 ) ) ;
#601 = VERTEX_POINT ( 'NONE', #570 ) ;
#602 = EDGE_CURVE ( 'NONE', #321, #307, #55, .T. ) ;
#603 = CARTESIAN_POINT ( 'NONE',  ( -3.799999999999999822, -11.98994949366116813, 0.000000000000000000 ) ) ;
#604 = ORIENTED_EDGE ( 'NONE', *, *, #199, .T. ) ;
#605 = FACE_OUTER_BOUND ( 'NONE', #373, .T. ) ;
#606 = CIRCLE ( 'NONE', #243, 0.2999999999999999334 ) ;
#607 = CARTESIAN_POINT ( 'NONE',  ( 3.799999999999999822, 0.2999999999999999889, 0.000000000000000000 ) ) ;
#608 = PRODUCT_DEFINITION_FORMATION_WITH_SPECIFIED_SOURCE ( 'ANY', '', #553, .NOT_KNOWN. ) ;
#609 = DIRECTION ( 'NONE',  ( 0.000000000000000000, 1.000000000000000000, 0.000000000000000000 ) ) ;
#610 = CARTESIAN_POINT ( 'NONE',  ( 0.000000000000000000, 0.2999999999999999889, 0.000000000000000000 ) ) ;
ENDSEC;
END-ISO-10303-21;
